<?xml version="1.0" standalone="no"?>
<!DOCTYPE svg PUBLIC "-//W3C//DTD SVG 20010904//EN"
 "http://www.w3.org/TR/2001/REC-SVG-20010904/DTD/svg10.dtd">
<svg version="1.0" xmlns="http://www.w3.org/2000/svg"
 width="256.000000pt" height="256.000000pt" viewBox="0 0 256.000000 256.000000"
 preserveAspectRatio="xMidYMid meet">

<g transform="translate(0.000000,256.000000) scale(0.100000,-0.100000)"
fill="#000000" stroke="none">
<path d="M556 1728 c-13 -18 -16 -51 -16 -151 0 -71 5 -137 10 -148 10 -18 24
-19 315 -19 l305 0 0 -95 0 -95 -297 0 c-170 0 -304 -4 -313 -10 -12 -8 -15
-37 -15 -160 0 -123 3 -152 15 -160 9 -6 143 -10 313 -10 l297 0 0 -100 0
-100 -305 0 c-291 0 -305 -1 -315 -19 -5 -11 -10 -77 -10 -148 0 -100 3 -133
16 -151 l15 -22 418 0 c336 0 421 3 430 13 7 9 12 99 13 263 l3 249 44 0 45 0
102 -244 c56 -135 107 -253 113 -263 10 -16 26 -18 120 -18 86 0 113 3 125 16
9 8 16 19 16 24 0 5 -60 138 -133 297 l-134 288 40 45 c181 207 144 517 -79
665 -112 74 -117 75 -649 75 l-474 0 -15 -22z m979 -73 c141 -37 241 -147 263
-289 19 -121 -18 -227 -110 -319 l-59 -57 131 -270 c71 -148 130 -274 130
-279 0 -6 -21 -11 -47 -11 l-48 0 -64 158 c-129 313 -162 384 -180 376 -9 -3
-55 -8 -103 -11 l-88 -6 0 -258 0 -259 -365 0 -365 0 0 80 0 80 295 0 295 0 0
200 0 200 -295 0 -295 0 0 60 0 60 295 0 295 0 0 190 0 190 -295 0 -295 0 0
83 c0 46 3 87 7 90 3 4 194 7 423 7 343 0 426 -3 475 -15z"/>
<path d="M1360 1310 l0 -220 68 0 c82 0 134 22 183 77 78 87 74 207 -10 293
-52 54 -94 70 -183 70 l-58 0 0 -220z m184 142 c56 -39 78 -84 74 -154 -6 -88
-67 -154 -150 -160 l-33 -3 -3 165 c-1 90 0 170 2 177 8 19 64 6 110 -25z"/>
</g>
</svg>
